<svg width="32" height="32" xmlns="http://www.w3.org/2000/svg">
 <!-- Created with Method Draw - http://github.com/duopixel/Method-Draw/ -->

 <g>
  <title>Layer 1</title>
  <g stroke="null" id="svg_6">
   <path fill="#db5a42" stroke="null" id="svg_5" d="m13.960113,25.088881l-5.012755,5.367415c-0.390995,0.419732 -1.026612,0.419732 -1.417607,0l-5.012755,-5.367415c-0.391997,-0.419732 -0.391997,-1.099247 0,-1.517905s1.026612,-0.419732 1.417607,0l3.301401,3.53498l0,-10.290409c0,-0.592563 0.449143,-1.073483 1.002551,-1.073483s1.002551,0.48092 1.002551,1.073483l0,10.290409l3.301401,-3.53498c0.195497,-0.209329 0.452151,-0.314531 0.708804,-0.314531s0.513306,0.105201 0.708804,0.314531c0.391997,0.419732 0.391997,1.099247 0,1.517905z"/>
  </g>
  <g transform="rotate(-180 24.99051856994629,24.059253692626953) " stroke="null" id="svg_18">
   <path fill="#499f68" stroke="null" id="svg_17" d="m30.712072,25.839088l-5.012755,5.367415c-0.390995,0.419732 -1.026612,0.419732 -1.417607,0l-5.012755,-5.367415c-0.391998,-0.419732 -0.391998,-1.099247 0,-1.517905s1.026612,-0.419732 1.417607,0l3.3014,3.53498l0,-10.290409c0,-0.592563 0.449143,-1.073483 1.002551,-1.073483s1.002551,0.48092 1.002551,1.073483l0,10.290409l3.301401,-3.53498c0.195497,-0.209329 0.45215,-0.314531 0.708804,-0.314531s0.513306,0.105202 0.708803,0.314531c0.391998,0.419732 0.391998,1.099246 0,1.517905z"/>
  </g>
  <g stroke="null" id="svg_20">
   <path fill="#cccccc" id="svg_19" d="m13.835115,8.846679l-5.012755,5.367415c-0.390995,0.419732 -1.026612,0.419732 -1.417607,0l-5.012755,-5.367415c-0.391998,-0.419732 -0.391998,-1.099247 0,-1.517905s1.026612,-0.419732 1.417607,0l3.3014,3.53498l0,-10.290409c0,-0.592563 0.449143,-1.073483 1.002551,-1.073483s1.002551,0.48092 1.002551,1.073483l0,10.290409l3.301401,-3.53498c0.195497,-0.209329 0.45215,-0.314531 0.708804,-0.314531s0.513306,0.105202 0.708803,0.314531c0.391998,0.419732 0.391998,1.099246 0,1.517905z"/>
  </g>
  <g transform="rotate(-180 24.990522384643555,8.059252738952637) " stroke="null" id="svg_22">
   <path fill="#cccccc" id="svg_21" d="m30.712077,9.839088l-5.012755,5.367415c-0.390995,0.419732 -1.026612,0.419732 -1.417607,0l-5.012755,-5.367415c-0.391998,-0.419732 -0.391998,-1.099247 0,-1.517905s1.026612,-0.419732 1.417607,0l3.3014,3.53498l0,-10.290409c0,-0.592563 0.449143,-1.073483 1.002551,-1.073483s1.002551,0.48092 1.002551,1.073483l0,10.290409l3.301401,-3.53498c0.195497,-0.209329 0.45215,-0.314531 0.708804,-0.314531s0.513306,0.105202 0.708803,0.314531c0.391998,0.419732 0.391998,1.099246 0,1.517905z"/>
  </g>
 </g>
</svg>