<?xml version="1.0" encoding="utf-8"?>
<!-- Generator: Adobe Illustrator 15.1.0, SVG Export Plug-In . SVG Version: 6.00 Build 0)  -->
<!DOCTYPE svg PUBLIC "-//W3C//DTD SVG 1.1//EN" "http://www.w3.org/Graphics/SVG/1.1/DTD/svg11.dtd">
<svg version="1.1" id="Layer_1" xmlns="http://www.w3.org/2000/svg" xmlns:xlink="http://www.w3.org/1999/xlink" x="0px" y="0px"
	 width="94px" height="40px" viewBox="0 0 94 40" enable-background="new 0 0 94 40" xml:space="preserve">
<g>
	<path fill="#3A2E39" d="M22.9,9h-3.3c-0.3,0-0.5,0.1-0.6,0.4l-2.7,13.4L13.7,9.5C13.6,9.1,13.4,9,13.1,9H9.7C9.3,9,9.2,9.2,9.2,9.6
		l4.7,21c0.1,0.3,0.3,0.4,0.6,0.4h0.1H18h0.1c0.3,0,0.5-0.1,0.6-0.4l4.7-21C23.5,9.1,23.3,9,22.9,9z"/>
	<path fill="#3A2E39" d="M37,12.9c0,0.3-0.1,0.1-0.4,0.1H30v5h4.9c0.3,0,0.1-0.1,0.1,0.3v3.5c0,0.3,0.2,0.2-0.1,0.2H30v5h6.6
		c0.3,0,0.4-0.2,0.4,0.1v3.6c0,0.3-0.1,0.3-0.4,0.3H26.3c-0.3,0-0.3-0.1-0.3-0.3V9.3C26,9.1,26.1,9,26.3,9h10.2
		C36.9,9,37,9.1,37,9.3V12.9z"/>
	<path fill="#3A2E39" d="M52.7,18c0.3,0,0.3-0.1,0.3,0.2v12.6c0,0.3-0.1,0.2-0.3,0.2h-3.4c-0.3,0-0.4,0-0.5-0.2L44.4,20H44v10.7
		c0,0.3,0.1,0.3-0.2,0.3h-3.6c-0.3,0-0.2-0.1-0.2-0.3V9.3C40,9.1,39.9,9,40.2,9h3.4c0.2,0,0.4,0.1,0.5,0.3L48.5,20H49v-1.8
		c0-0.3-0.2-0.2,0.1-0.2H52.7z"/>
	<path fill="#3A2E39" d="M69.9,18c0.3,0,0.1-0.1,0.1,0.2v12.4c0,0.3,0.2,0.3-0.1,0.3h-3.6C66,31,66,30.9,66,30.7V18.2
		c0-0.3,0-0.2,0.3-0.2H69.9z"/>
	<path fill="#E34234" d="M93.2,0h-1.7h-1.9H4.3H3H0.8C0.5,0,0,0.2,0,0.4v39.1C0,39.8,0.5,40,0.8,40H3h1.3h85.3h0.2h3.3
		c0.3,0,0.8-0.2,0.8-0.4V0.4C94,0.2,93.5,0,93.2,0z M89,4v32H61V13h8.9c0.3,0,0.1,0.2,0.1-0.1V9.3C70,9.1,70.2,9,69.9,9H49.1
		C48.8,9,49,9.1,49,9.3v3.6c0,0.3-0.2,0.1,0.1,0.1H57v23H5V4H89z"/>
	<path fill="#3A2E39" d="M78,27h6.3c0.3,0,0.7-0.2,0.7,0.1v3.6c0,0.3-0.4,0.3-0.7,0.3H74.1c-0.3,0-0.1,0-0.1-0.3V9.3
		C74,9.1,73.8,9,74.1,9h3.6C78,9,78,9.1,78,9.3V27z"/>
</g>
</svg>
